<svg width="128" height="128" viewBox="0 0 128 128" fill="none" xmlns="http://www.w3.org/2000/svg">
<g clip-path="url(#clip0)">
<path d="M35.875 75.25C35.875 84.4911 43.5089 92.125 52.75 92.125C61.9911 92.125 69.625 84.4911 69.625 75.25C69.625 66.0089 61.9911 58.375 52.75 58.375C50.8214 58.375 48.8929 58.6964 47.125 59.3393V52.75C47.125 49.6964 49.6964 47.125 52.75 47.125C55.8036 47.125 58.375 49.6964 58.375 52.75H69.625C69.625 43.5089 61.9911 35.875 52.75 35.875C43.5089 35.875 35.875 43.5089 35.875 52.75V75.25ZM47.125 75.25C47.125 72.1964 49.6964 69.625 52.75 69.625C55.8036 69.625 58.375 72.1964 58.375 75.25C58.375 78.3036 55.8036 80.875 52.75 80.875C49.6964 80.875 47.125 78.3036 47.125 75.25Z" fill="#FF3E50"/>
<path d="M109 52.75C109 43.5089 101.366 35.875 92.125 35.875C82.8839 35.875 75.25 43.5089 75.25 52.75V75.25C75.25 84.4911 82.8839 92.125 92.125 92.125C101.366 92.125 109 84.4911 109 75.25V52.75ZM97.75 75.25C97.75 78.3036 95.1786 80.875 92.125 80.875C89.0714 80.875 86.5 78.3036 86.5 75.25V52.75C86.5 49.6964 89.0714 47.125 92.125 47.125C95.1786 47.125 97.75 49.6964 97.75 52.75V75.25Z" fill="#FF3E50"/>
<path d="M22.9844 64H26.9688V59.6378C29.274 58.8055 30.9531 56.567 30.9531 53.9554C30.9531 50.655 28.2494 47.9286 24.9766 47.9286C23.8951 47.9286 22.9844 47.0102 22.9844 45.9196C22.9844 44.8291 23.8951 43.9107 24.9766 43.9107C26.058 43.9107 26.9688 44.8291 26.9688 45.9196H30.9531C30.9531 43.3367 29.274 41.0982 26.9688 40.2659V35.875H22.9844V40.2659C20.6791 41.0982 19 43.3367 19 45.9196C19 49.22 21.7037 51.9464 24.9766 51.9464C26.058 51.9464 26.9688 52.8648 26.9688 53.9554C26.9688 55.0459 26.058 55.9643 24.9766 55.9643C23.8951 55.9643 22.9844 55.0459 22.9844 53.9554H19C19 56.567 20.6791 58.8055 22.9844 59.6378V64Z" fill="#FF3E50"/>
</g>
<defs>
<clipPath id="clip0">
<rect width="128" height="128" fill="white"/>
</clipPath>
</defs>
</svg>
