<svg width="80" height="80" viewBox="0 0 80 80" fill="none" xmlns="http://www.w3.org/2000/svg">
<path d="M43.9198 54.5577L69.1314 80L80 69.1601L54.6993 43.7178L43.9198 54.5577ZM0 5.0168L6.50334 13.2587L11.7595 14.3337L29.0423 31.7133L31.9822 28.757L14.6102 11.3774L13.5412 6.18141L5.52339 0L0 5.0168ZM0 59.5745L0.0890869 71.3998L9.35412 62.0829L17.6392 70.4143L8.37416 79.7312L20.2227 79.9104V79.7312L20.3118 79.8208L28.686 71.3998L28.5969 59.3953L58.7973 29.0258L70.735 29.1153L79.1091 20.6943L79.02 20.6047H79.1982L79.02 8.68981L69.755 18.0067L61.4699 9.67525L70.735 0.358343L58.9755 0.268757L50.5122 8.7794V20.6943L20.3118 51.0638H8.46325L0 59.5745Z" fill="#EB5757"/>
</svg>
