<svg width="100" height="57" viewBox="0 0 100 57" fill="none" xmlns="http://www.w3.org/2000/svg">
<path fill-rule="evenodd" clip-rule="evenodd" d="M2.65216 20.1682C3.44949 20.4456 4.48082 20.6362 5.74616 20.7402V23.8342H9.02216V20.6622C9.87149 20.5236 10.5822 20.2982 11.1542 19.9862C11.7435 19.6742 12.2202 19.3016 12.5842 18.8682C12.9482 18.4349 13.2082 17.9669 13.3642 17.4642C13.5202 16.9442 13.5982 16.4242 13.5982 15.9042C13.5982 15.1416 13.4595 14.4742 13.1822 13.9022C12.9222 13.3302 12.5495 12.8362 12.0642 12.4202C11.5962 11.9869 11.0328 11.6056 10.3742 11.2762C9.73282 10.9469 9.03082 10.6436 8.26816 10.3662C7.76549 10.1929 7.33216 10.0369 6.96816 9.89822C6.62149 9.74222 6.32682 9.58622 6.08416 9.43022C5.84149 9.27422 5.65949 9.10089 5.53816 8.91022C5.43416 8.70222 5.38216 8.45955 5.38216 8.18222C5.38216 7.73155 5.56416 7.36755 5.92816 7.09022C6.29216 6.81289 6.89016 6.67422 7.72216 6.67422C8.55416 6.67422 9.34282 6.76089 10.0882 6.93422C10.8508 7.10755 11.5182 7.31555 12.0902 7.55822L12.8962 4.43822C12.5148 4.26489 11.9948 4.09155 11.3362 3.91822C10.6948 3.74488 9.92349 3.61488 9.02216 3.52822V0.824219H5.74616V3.63222C4.98349 3.77089 4.32482 3.99622 3.77016 4.30822C3.21549 4.60289 2.76482 4.96689 2.41816 5.40022C2.07149 5.83355 1.81149 6.31888 1.63816 6.85622C1.48216 7.37622 1.40416 7.92222 1.40416 8.49422C1.40416 9.23955 1.53416 9.88089 1.79416 10.4182C2.07149 10.9382 2.42682 11.3802 2.86016 11.7442C3.31082 12.1082 3.80482 12.4202 4.34216 12.6802C4.89682 12.9229 5.46016 13.1482 6.03216 13.3562C6.62149 13.5642 7.14149 13.7636 7.59216 13.9542C8.04282 14.1276 8.41549 14.3096 8.71016 14.5002C9.00482 14.6909 9.23016 14.9076 9.38616 15.1502C9.54216 15.3756 9.62016 15.6529 9.62016 15.9822C9.62016 16.5022 9.42082 16.9096 9.02216 17.2042C8.64082 17.4816 7.92149 17.6202 6.86416 17.6202C5.92816 17.6202 5.03549 17.4989 4.18616 17.2562C3.35416 17.0136 2.63482 16.7449 2.02816 16.4502L0.910156 19.4402C1.29149 19.6309 1.87216 19.8736 2.65216 20.1682ZM41.6129 26.425C40.3462 26.6277 39.1302 26.729 37.9649 26.729C34.9249 26.729 32.7209 26.0704 31.3529 24.753C30.0356 23.4357 29.3769 21.409 29.3769 18.673C29.3769 17.761 29.5036 16.8237 29.7569 15.861C30.0609 14.8983 30.4916 14.0117 31.0489 13.201C31.6062 12.3903 32.3409 11.7317 33.2529 11.225C34.1649 10.7183 35.2289 10.465 36.4449 10.465C37.9649 10.465 39.2316 10.8197 40.2449 11.529C41.3089 12.1877 42.1449 13.125 42.7529 14.341C43.3609 15.5064 43.7916 16.8997 44.0449 18.521C44.2982 20.0917 44.4502 21.789 44.5009 23.613C44.5009 23.765 44.4756 23.9423 44.4249 24.145V24.753V25.437C43.8169 25.8424 42.8796 26.1717 41.6129 26.425ZM39.9409 35.241C41.2582 34.9877 42.4489 34.6077 43.5129 34.101C42.8036 36.3303 41.8156 38.1797 40.5489 39.649C39.3329 41.1184 37.8382 42.309 36.0649 43.221C34.2916 44.0824 32.2396 44.7157 29.9089 45.121C27.5782 45.4757 24.9689 45.6784 22.0809 45.729C22.1822 47.3504 22.2836 48.921 22.3849 50.441C22.4862 51.961 22.5622 53.5317 22.6129 55.153C28.3889 55.1024 33.3796 54.4184 37.5849 53.101C41.7902 51.733 45.2356 49.757 47.9209 47.173C50.6569 44.589 52.6582 41.397 53.9249 37.597C55.2422 33.797 55.9009 29.4143 55.9009 24.449C55.9009 16.8997 54.2289 11.1237 50.8849 7.12101C47.5916 3.06768 42.6769 1.04102 36.1409 1.04102C32.9489 1.04102 30.2129 1.62368 27.9329 2.78902C25.7036 3.90368 23.8542 5.34768 22.3849 7.12101C20.9156 8.84368 19.8262 10.769 19.1169 12.897C18.4582 15.025 18.1289 17.1024 18.1289 19.129C18.1289 21.561 18.4836 23.7903 19.1929 25.817C19.9022 27.8437 20.9916 29.5917 22.4609 31.061C23.9809 32.4797 25.9062 33.5944 28.2369 34.405C30.5676 35.165 33.3796 35.545 36.6729 35.545C37.5849 35.545 38.6742 35.4437 39.9409 35.241ZM94.6882 48.997C98.0829 44.2344 99.7802 37.4197 99.7802 28.553C99.7802 19.737 98.0829 12.973 94.6882 8.26102C91.3442 3.49835 86.7082 1.11701 80.7802 1.11701C77.8922 1.11701 75.2829 1.72501 72.9522 2.94101C70.6216 4.15702 68.6202 5.93035 66.9482 8.26102C65.2762 10.5917 63.9842 13.4543 63.0722 16.849C62.2109 20.2437 61.7802 24.145 61.7802 28.553C61.7802 37.4197 63.4522 44.2344 66.7962 48.997C70.1909 53.709 74.8522 56.065 80.7802 56.065C86.7082 56.065 91.3442 53.709 94.6882 48.997ZM87.8482 21.409C88.1016 23.537 88.2282 25.9184 88.2282 28.553C88.2282 31.1877 88.1016 33.5944 87.8482 35.773C87.5949 37.9517 87.1896 39.8264 86.6322 41.397C86.0749 42.9677 85.3149 44.1837 84.3522 45.045C83.3896 45.9063 82.1989 46.337 80.7802 46.337C79.3616 46.337 78.1709 45.9063 77.2082 45.045C76.2962 44.1837 75.5362 42.9677 74.9282 41.397C74.3709 39.8264 73.9656 37.9517 73.7122 35.773C73.4589 33.5944 73.3322 31.1877 73.3322 28.553C73.3322 25.9184 73.4589 23.537 73.7122 21.409C73.9656 19.2304 74.3709 17.3557 74.9282 15.785C75.5362 14.2143 76.2962 12.9983 77.2082 12.137C78.1709 11.2757 79.3616 10.845 80.7802 10.845C82.1989 10.845 83.3896 11.2757 84.3522 12.137C85.3149 12.9983 86.0749 14.2143 86.6322 15.785C87.1896 17.3557 87.5949 19.2304 87.8482 21.409Z" fill="white"/>
</svg>
