<svg width="128" height="128" viewBox="0 0 128 128" fill="none" xmlns="http://www.w3.org/2000/svg">
<path fill-rule="evenodd" clip-rule="evenodd" d="M16.742 55.344C17.5393 55.6213 18.5707 55.812 19.836 55.916V59.01H23.112V55.838C23.9613 55.6993 24.672 55.474 25.244 55.162C25.8333 54.85 26.31 54.4773 26.674 54.044C27.038 53.6107 27.298 53.1427 27.454 52.64C27.61 52.12 27.688 51.6 27.688 51.08C27.688 50.3173 27.5493 49.65 27.272 49.078C27.012 48.506 26.6393 48.012 26.154 47.596C25.686 47.1627 25.1227 46.7813 24.464 46.452C23.8227 46.1227 23.1207 45.8193 22.358 45.542C21.8553 45.3687 21.422 45.2127 21.058 45.074C20.7113 44.918 20.4167 44.762 20.174 44.606C19.9313 44.45 19.7493 44.2767 19.628 44.086C19.524 43.878 19.472 43.6353 19.472 43.358C19.472 42.9073 19.654 42.5433 20.018 42.266C20.382 41.9887 20.98 41.85 21.812 41.85C22.644 41.85 23.4327 41.9367 24.178 42.11C24.9407 42.2833 25.608 42.4913 26.18 42.734L26.986 39.614C26.6047 39.4407 26.0847 39.2673 25.426 39.094C24.7847 38.9207 24.0133 38.7907 23.112 38.704V36H19.836V38.808C19.0733 38.9467 18.4147 39.172 17.86 39.484C17.3053 39.7787 16.8547 40.1427 16.508 40.576C16.1613 41.0093 15.9013 41.4947 15.728 42.032C15.572 42.552 15.494 43.098 15.494 43.67C15.494 44.4153 15.624 45.0567 15.884 45.594C16.1613 46.114 16.5167 46.556 16.95 46.92C17.4007 47.284 17.8947 47.596 18.432 47.856C18.9867 48.0987 19.55 48.324 20.122 48.532C20.7113 48.74 21.2313 48.9393 21.682 49.13C22.1327 49.3033 22.5053 49.4853 22.8 49.676C23.0947 49.8667 23.32 50.0833 23.476 50.326C23.632 50.5513 23.71 50.8287 23.71 51.158C23.71 51.678 23.5107 52.0853 23.112 52.38C22.7307 52.6573 22.0113 52.796 20.954 52.796C20.018 52.796 19.1253 52.6747 18.276 52.432C17.444 52.1893 16.7247 51.9207 16.118 51.626L15 54.616C15.3813 54.8067 15.962 55.0493 16.742 55.344ZM55.7028 61.6008C54.4361 61.8035 53.2201 61.9048 52.0547 61.9048C49.0148 61.9048 46.8108 61.2461 45.4427 59.9288C44.1254 58.6115 43.4668 56.5848 43.4668 53.8488C43.4668 52.9368 43.5934 51.9995 43.8468 51.0368C44.1507 50.0741 44.5814 49.1875 45.1388 48.3768C45.6961 47.5661 46.4307 46.9075 47.3428 46.4008C48.2547 45.8941 49.3188 45.6408 50.5348 45.6408C52.0548 45.6408 53.3214 45.9955 54.3347 46.7048C55.3988 47.3635 56.2348 48.3008 56.8428 49.5168C57.4508 50.6821 57.8814 52.0755 58.1348 53.6968C58.3881 55.2675 58.5401 56.9648 58.5908 58.7888C58.5908 58.9408 58.5654 59.1181 58.5148 59.3208V59.9288V60.6128C57.9068 61.0181 56.9694 61.3475 55.7028 61.6008ZM54.0308 70.4168C55.3481 70.1635 56.5387 69.7835 57.6028 69.2768C56.8934 71.5061 55.9054 73.3555 54.6387 74.8248C53.4228 76.2941 51.9281 77.4848 50.1547 78.3968C48.3814 79.2581 46.3294 79.8915 43.9988 80.2968C41.6681 80.6515 39.0588 80.8541 36.1707 80.9048C36.2721 82.5261 36.3734 84.0968 36.4748 85.6168C36.5761 87.1368 36.6521 88.7075 36.7028 90.3288C42.4788 90.2781 47.4694 89.5941 51.6748 88.2768C55.8801 86.9088 59.3254 84.9328 62.0107 82.3488C64.7468 79.7648 66.7481 76.5728 68.0148 72.7728C69.3321 68.9728 69.9908 64.5901 69.9908 59.6248C69.9908 52.0755 68.3188 46.2995 64.9748 42.2968C61.6814 38.2435 56.7668 36.2168 50.2308 36.2168C47.0387 36.2168 44.3027 36.7995 42.0228 37.9648C39.7934 39.0795 37.9441 40.5235 36.4748 42.2968C35.0054 44.0195 33.9161 45.9448 33.2068 48.0728C32.5481 50.2008 32.2188 52.2781 32.2188 54.3048C32.2188 56.7368 32.5734 58.9661 33.2827 60.9928C33.9921 63.0195 35.0814 64.7675 36.5508 66.2368C38.0707 67.6555 39.9961 68.7701 42.3268 69.5808C44.6574 70.3408 47.4694 70.7208 50.7627 70.7208C51.6748 70.7208 52.7641 70.6195 54.0308 70.4168ZM108.778 84.1728C112.173 79.4101 113.87 72.5955 113.87 63.7288C113.87 54.9128 112.173 48.1488 108.778 43.4368C105.434 38.6741 100.798 36.2928 94.8701 36.2928C91.9821 36.2928 89.3727 36.9008 87.0421 38.1168C84.7114 39.3328 82.7101 41.1061 81.0381 43.4368C79.3661 45.7675 78.0741 48.6301 77.1621 52.0248C76.3007 55.4195 75.8701 59.3208 75.8701 63.7288C75.8701 72.5955 77.5421 79.4101 80.8861 84.1728C84.2807 88.8848 88.9421 91.2408 94.8701 91.2408C100.798 91.2408 105.434 88.8848 108.778 84.1728ZM101.938 56.5848C102.191 58.7128 102.318 61.0941 102.318 63.7288C102.318 66.3635 102.191 68.7701 101.938 70.9488C101.685 73.1275 101.279 75.0021 100.722 76.5728C100.165 78.1435 99.4047 79.3595 98.4421 80.2208C97.4794 81.0821 96.2887 81.5128 94.8701 81.5128C93.4514 81.5128 92.2607 81.0821 91.2981 80.2208C90.3861 79.3595 89.6261 78.1435 89.0181 76.5728C88.4607 75.0021 88.0554 73.1275 87.8021 70.9488C87.5487 68.7701 87.4221 66.3635 87.4221 63.7288C87.4221 61.0941 87.5487 58.7128 87.8021 56.5848C88.0554 54.4061 88.4607 52.5315 89.0181 50.9608C89.6261 49.3901 90.3861 48.1741 91.2981 47.3128C92.2607 46.4515 93.4514 46.0208 94.8701 46.0208C96.2887 46.0208 97.4794 46.4515 98.4421 47.3128C99.4047 48.1741 100.165 49.3901 100.722 50.9608C101.279 52.5315 101.685 54.4061 101.938 56.5848Z" fill="white"/>
</svg>
