<svg width="96" height="96" viewBox="0 0 96 96" fill="none" xmlns="http://www.w3.org/2000/svg">
<path d="M65.8316 82.506L64.5983 87.6317C60.8984 89.1164 57.943 90.2465 55.7422 91.0234C53.5391 91.8028 50.9791 92.1904 48.0625 92.1904C43.5834 92.1904 40.0995 91.0749 37.6147 88.8591C35.13 86.6344 33.8872 83.8154 33.8872 80.3956C33.8872 79.0717 33.9774 77.71 34.1648 76.3226C34.3539 74.9336 34.6545 73.3693 35.0659 71.6208L39.6897 54.9817C40.1011 53.3884 40.4507 51.8787 40.7308 50.4511C41.0148 49.0324 41.1516 47.727 41.1516 46.5519C41.1516 44.427 40.7189 42.9407 39.8574 42.105C38.9959 41.2718 37.3521 40.8487 34.9116 40.8487C33.7163 40.8487 32.4878 41.0434 31.2355 41.4198C29.9777 41.7978 28.9026 42.1629 28 42.5023L29.2365 37.3726C32.2655 36.1187 35.1608 35.045 37.9304 34.1538C40.6999 33.2603 43.3168 32.8131 45.7921 32.8131C50.2403 32.8131 53.6728 33.9061 56.0832 36.0922C58.4936 38.2798 59.6984 41.1158 59.6984 44.6104C59.6984 45.3334 59.6193 46.6074 59.4492 48.4283C59.2831 50.2533 58.9737 51.9254 58.5228 53.4463L53.9188 70.0186C53.5414 71.3497 53.2021 72.8714 52.907 74.5838C52.6024 76.2848 52.4569 77.5846 52.4569 78.4564C52.4569 80.6569 52.9394 82.1593 53.9069 82.958C54.8815 83.7567 56.5602 84.154 58.9445 84.154C60.0639 84.154 61.3375 83.9521 62.7527 83.5556C64.1648 83.1591 65.194 82.8108 65.8316 82.506ZM67 12.9303C67 15.8177 65.9297 18.2836 63.7787 20.3113C61.6333 22.3461 59.0481 23.3643 56.0238 23.3643C52.9901 23.3643 50.3985 22.3461 48.2286 20.3113C46.0626 18.2828 44.9773 15.8177 44.9773 12.9303C44.9773 10.0485 46.0626 7.57858 48.2286 5.52523C50.3945 3.4751 52.9909 2.45044 56.0238 2.45044C59.0473 2.45044 61.6333 3.47751 63.7787 5.52523C65.9305 7.57858 67 10.0493 67 12.9303Z" fill="#EB5757"/>
</svg>
