<svg width="128" height="128" viewBox="0 0 128 128" fill="none" xmlns="http://www.w3.org/2000/svg">
<path d="M16.3467 56.2565L30.5949 55.2651L32.4173 47.6644L9.16742 49.2616L0 86.7143L9.05697 86.1084L13.0332 69.7504L26.0664 68.8692L27.8888 61.2134L14.9109 62.0947L16.3467 56.2565Z" fill="#FF3E50"/>
<path d="M51.181 46.2324L42.8972 46.673L42.9524 46.7281L37.706 47.0034L27.8759 84.2909L36.9329 83.7952L41.2957 67.2169L44.2226 67.0516L50.5183 82.9139L59.1887 82.4733L53.1691 66.4458C60.2932 65.4544 63.8276 61.4337 64.0485 54.4389C64.2694 47.6644 59.023 45.7917 51.181 46.2324ZM50.9601 60.1119L43.0629 60.5525L44.8301 53.6678L52.3408 53.2823C54.5498 53.1721 55.3782 53.778 55.4334 55.4303C55.5991 58.0189 53.6662 60.0017 50.9601 60.1119Z" fill="#FF3E50"/>
<path d="M80.038 51.9604L95.1698 50.9139L96.8818 43.2031L72.9139 44.9105L63.7465 82.3632L89.7025 80.5456L91.3592 72.8898L74.6259 74.1016L76.8349 65.179L90.31 64.1876L92.1324 56.5869L78.7126 57.5232L80.038 51.9604Z" fill="#FF3E50"/>
<path d="M111.156 49.7022L126.288 48.6558L128 41L104.032 42.6523L94.8648 80.105L120.821 78.2874L122.477 70.6867L105.744 71.8434L107.953 62.9208L121.428 61.9845L123.251 54.3287L109.831 55.2651L111.156 49.7022Z" fill="#FF3E50"/>
</svg>
