<svg xmlns="http://www.w3.org/2000/svg" viewBox="0 0 1983.48 719.29">
    <title>logotype-10</title>
    <path d="M450,486.29l55,222,84-22-80-304Zm-190,149c-98,0-176-78-176-176s78-176,176-176,176,78,176,176S358,635.29,260,635.29Zm0,84a260,260,0,1,0-260-260A259.48,259.48,0,0,0,260,719.29Z"/><path d="M816.48,288.76l-22-81c-139,39-220,179-183,319,37,139,179,220,318,184l-22-82c-95,25-189-30-214-124C668.48,409.76,722.48,315.76,816.48,288.76Z"/><path d="M987.48,689.29l83,23,103-367-84-22Zm-1-308,83,23,102-380-84-22Z"/><path d="M1438.48,289l-22-81c-139,37-221,180-184,319s180,221,319,183l-21-81c-95,26-191-29-216-124S1343.48,315,1438.48,289Zm196,398-184-687-84,22,185,688Z"/><path d="M1870.48,288.76l-22-81c-139,39-220,179-183,319,37,139,179,220,318,184l-22-82c-95,25-189-30-214-124C1722.48,409.76,1776.48,315.76,1870.48,288.76Z"/>
</svg>