<svg width="62" height="71" viewBox="0 0 62 71">
    <path fill-rule="evenodd" clip-rule="evenodd" d="M61.5 0H0.5V71H61.5V0ZM1.5 70V11H60.5V70H1.5ZM60.5 10H1.5V1H60.5V10ZM7.5 6.5C8.32843 6.5 9 5.82843 9 5C9 4.17157 8.32843 3.5 7.5 3.5C6.67157 3.5 6 4.17157 6 5C6 5.82843 6.67157 6.5 7.5 6.5ZM7.5 7.5C8.88071 7.5 10 6.38071 10 5C10 3.61929 8.88071 2.5 7.5 2.5C6.11929 2.5 5 3.61929 5 5C5 6.38071 6.11929 7.5 7.5 7.5ZM54.5 6.5C55.3284 6.5 56 5.82843 56 5C56 4.17157 55.3284 3.5 54.5 3.5C53.6716 3.5 53 4.17157 53 5C53 5.82843 53.6716 6.5 54.5 6.5ZM54.5 7.5C55.8807 7.5 57 6.38071 57 5C57 3.61929 55.8807 2.5 54.5 2.5C53.1193 2.5 52 3.61929 52 5C52 6.38071 53.1193 7.5 54.5 7.5ZM13.5 28.5C13.5 25.4624 15.9624 23 19 23C22.0376 23 24.5 25.4624 24.5 28.5C24.5 31.5376 22.0376 34 19 34C15.9624 34 13.5 31.5376 13.5 28.5ZM19 22C15.4101 22 12.5 24.9101 12.5 28.5C12.5 32.0899 15.4101 35 19 35C22.5899 35 25.5 32.0899 25.5 28.5C25.5 24.9101 22.5899 22 19 22ZM28.0022 23.0922C28.9531 24.6718 29.5 26.522 29.5 28.5C29.5 30.478 28.9531 32.3282 28.0022 33.9078C30.5523 33.4329 32.5 31.1819 32.5 28.5C32.5 25.8181 30.5523 23.5671 28.0022 23.0922ZM27.2505 34.9952C30.7117 34.8625 33.5 31.9923 33.5 28.5C33.5 25.0077 30.7117 22.1375 27.2505 22.0048C26.4231 20.9552 25.3996 20.0672 24.2353 19.3962C25.1119 19.1435 26.0567 19 27 19C32.2238 19 36.5 23.2761 36.5 28.5C36.5 33.7239 32.2238 38 27 38C26.0567 38 25.1119 37.8565 24.2353 37.6038C25.3996 36.9328 26.4231 36.0448 27.2505 34.9952ZM39.46 38C43.0216 36.3156 45.5 32.6839 45.5 28.5C45.5 22.7239 40.7761 18 35 18C33.5891 18 32.1811 18.2899 30.9564 18.7779C29.7339 18.2766 28.3978 18 27 18C25.5924 18 24.1877 18.2886 22.965 18.7744C21.7416 18.2752 20.4029 18 19 18C13.201 18 8.5 22.701 8.5 28.5C8.5 32.6973 10.9627 36.3193 14.5221 38H9V39H19H27H35H53V38H39.46ZM35 38C34.0522 38 33.1029 37.8551 32.2228 37.6001C33.3842 36.9293 34.407 36.0425 35.2354 34.9958C38.7036 34.8709 41.5 31.9974 41.5 28.5C41.5 25.0026 38.7036 22.1291 35.2354 22.0042C34.407 20.9575 33.3842 20.0707 32.2228 19.3999C33.1029 19.1449 34.0522 19 35 19C40.2238 19 44.5 23.2761 44.5 28.5C44.5 33.7239 40.2238 38 35 38ZM19 38C13.7533 38 9.5 33.7467 9.5 28.5C9.5 23.2533 13.7533 19 19 19C24.2467 19 28.5 23.2533 28.5 28.5C28.5 33.7467 24.2467 38 19 38ZM35.9893 33.9101C38.5457 33.4405 40.5 31.1864 40.5 28.5C40.5 25.8136 38.5457 23.5595 35.9893 23.0899C36.9475 24.6723 37.5 26.5246 37.5 28.5C37.5 30.4754 36.9475 32.3277 35.9893 33.9101ZM9 42.7H30V43.2C30 46.5714 28.4117 49.6128 25.9721 51.5H30V52.5C30 56.6839 27.5216 60.3156 23.96 62H53V63H19.5H9V62H15.04C11.4784 60.3156 9 56.6839 9 52.5V51.5H13.1324C10.6093 49.5643 9 46.5953 9 43.2V42.7ZM19.5 62C24.7239 62 29 57.7239 29 52.5H10C10 57.7239 14.2761 62 19.5 62ZM10.0129 43.7C10.1767 46.8527 11.8828 49.5606 14.4444 51.2H24.658C27.1166 49.6535 28.8236 46.8683 28.9871 43.7H10.0129ZM56.5 15H5.5V66H56.5V15ZM4.5 14V67H57.5V14H4.5ZM25 4H37V7H25V4ZM24 8V3H38V8H24Z"/>
</svg>
