<svg width="62" height="71" viewBox="0 0 62 71" xmlns="http://www.w3.org/2000/svg">
<path fill-rule="evenodd" clip-rule="evenodd" d="M0.5 0H61.5V9.5V10.5V71H0.5V0ZM60.5 9.5V1H1.5V9.5H60.5ZM1.5 10.5V70H60.5V10.5H1.5ZM31 23C21.335 23 13.5 30.835 13.5 40.5C13.5 50.165 21.335 58 31 58C38.7437 58 45.3127 52.9704 47.6183 45.9997L47.5566 46L47.4822 46L47.4524 46C46.2928 46 45.1988 45.6245 44.2995 44.9826C42.427 50.2179 37.2612 54 31.3071 54C23.6719 54 17.5 47.9871 17.5 40.5C17.5 33.0129 23.6719 27 31.3071 27C37.2757 27 42.452 30.8005 44.313 36.0555C45.2268 35.3927 46.3458 35 47.5476 35L47.585 35L47.6182 35C45.3125 28.0295 38.7436 23 31 23ZM43.4994 36.7744C41.9023 31.7222 36.9985 28 31.3071 28C24.2021 28 18.5 33.5871 18.5 40.5C18.5 47.4129 24.2021 53 31.3071 53C36.9811 53 41.8723 49.3005 43.4847 44.2719C42.5703 43.3022 42 41.997 42 40.5476C42 39.0978 42.5716 37.7682 43.4994 36.7744ZM48.5 40.5C48.5 42.0512 48.2982 43.5553 47.9193 44.9875C47.7768 44.9986 47.617 45 47.4524 45C45.0556 45 43 43.0272 43 40.5476C43 38.0619 45.0619 36 47.5476 36C47.6945 36 47.8145 36.0007 47.9173 36.0047C48.2974 37.4392 48.5 38.9459 48.5 40.5ZM12.5 40.5C12.5 30.2827 20.7827 22 31 22C41.2173 22 49.5 30.2827 49.5 40.5C49.5 50.7173 41.2173 59 31 59C20.7827 59 12.5 50.7173 12.5 40.5ZM25 3.5H13V6.5H25V3.5ZM12 2.5V7.5H26V2.5H12ZM42 5C42 5.82843 41.3284 6.5 40.5 6.5C39.6716 6.5 39 5.82843 39 5C39 4.17157 39.6716 3.5 40.5 3.5C41.3284 3.5 42 4.17157 42 5ZM43 5C43 6.38071 41.8807 7.5 40.5 7.5C39.1193 7.5 38 6.38071 38 5C38 3.61929 39.1193 2.5 40.5 2.5C41.8807 2.5 43 3.61929 43 5ZM47.5 6.5C48.3284 6.5 49 5.82843 49 5C49 4.17157 48.3284 3.5 47.5 3.5C46.6716 3.5 46 4.17157 46 5C46 5.82843 46.6716 6.5 47.5 6.5ZM47.5 7.5C48.8807 7.5 50 6.38071 50 5C50 3.61929 48.8807 2.5 47.5 2.5C46.1193 2.5 45 3.61929 45 5C45 6.38071 46.1193 7.5 47.5 7.5ZM26.5 49.5C26.5 48.8032 26.3594 48.2645 26.1342 47.8165C25.9131 47.3766 25.6211 47.0478 25.369 46.772L25.3204 46.7188C24.8428 46.1974 24.5 45.8231 24.5 45C24.5 44.4468 24.6095 44.0562 24.761 43.7489C24.9162 43.4341 25.1261 43.183 25.3726 42.9077L25.4029 42.8738L25.4578 42.813L25.4586 42.8121C25.9329 42.2868 26.5 41.6585 26.5 40.5C26.5 39.3039 25.8995 38.5582 25.4052 37.9443L25.3895 37.9247C24.8839 37.2967 24.5 36.8049 24.5 36C24.5 35.5011 24.606 35.1721 24.7488 34.9171C24.8975 34.6515 25.0961 34.4435 25.3497 34.1781L25.3616 34.1657C25.6105 33.9051 25.9067 33.5923 26.1305 33.1644C26.3594 32.727 26.5 32.1969 26.5 31.5C26.5 31.2239 26.2761 31 26 31C25.7239 31 25.5 31.2239 25.5 31.5C25.5 32.0531 25.3906 32.4214 25.2445 32.7008C25.0933 32.9898 24.8896 33.2121 24.6385 33.4749L24.5996 33.5155C24.3663 33.7593 24.0883 34.0497 23.8762 34.4286C23.644 34.8435 23.5 35.3427 23.5 36C23.5 37.1733 24.0938 37.9104 24.5833 38.5181L24.6105 38.5518C25.1133 39.1764 25.5 39.6776 25.5 40.5C25.5 41.2684 25.1682 41.6382 24.6903 42.1707L24.6274 42.2407C24.3739 42.524 24.0838 42.8608 23.864 43.3068C23.6405 43.7602 23.5 44.3032 23.5 45C23.5 46.2162 24.0774 46.8443 24.5623 47.372L24.631 47.4468C24.8789 47.7179 25.0869 47.9594 25.2408 48.2656C25.3906 48.5636 25.5 48.9468 25.5 49.5C25.5 49.7761 25.7239 50 26 50C26.2761 50 26.5 49.7761 26.5 49.5ZM32.1342 47.8165C32.3594 48.2645 32.5 48.8032 32.5 49.5C32.5 49.7761 32.2761 50 32 50C31.7239 50 31.5 49.7761 31.5 49.5C31.5 48.9468 31.3906 48.5636 31.2408 48.2656C31.0869 47.9594 30.8789 47.7179 30.631 47.4468L30.5623 47.372C30.0774 46.8443 29.5 46.2162 29.5 45C29.5 44.3032 29.6405 43.7602 29.864 43.3068C30.0838 42.8608 30.3739 42.524 30.6274 42.2407L30.6903 42.1707C31.1682 41.6382 31.5 41.2684 31.5 40.5C31.5 39.6776 31.1133 39.1764 30.6105 38.5518L30.5833 38.5181C30.0938 37.9104 29.5 37.1733 29.5 36C29.5 35.3427 29.644 34.8435 29.8762 34.4286C30.0883 34.0497 30.3663 33.7593 30.5996 33.5155L30.6385 33.4749C30.8896 33.2121 31.0933 32.9898 31.2445 32.7008C31.3906 32.4214 31.5 32.0531 31.5 31.5C31.5 31.2239 31.7239 31 32 31C32.2761 31 32.5 31.2239 32.5 31.5C32.5 32.1969 32.3594 32.727 32.1305 33.1644C31.9067 33.5923 31.6105 33.9051 31.3616 34.1657L31.3497 34.1781C31.0961 34.4435 30.8975 34.6515 30.7488 34.9171C30.606 35.1721 30.5 35.5011 30.5 36C30.5 36.8049 30.8839 37.2967 31.3895 37.9247L31.4052 37.9443C31.8995 38.5582 32.5 39.3039 32.5 40.5C32.5 41.6585 31.9329 42.2868 31.4586 42.8121C31.4295 42.8443 31.4008 42.8762 31.3726 42.9077C31.1261 43.183 30.9162 43.4341 30.761 43.7489C30.6095 44.0562 30.5 44.4468 30.5 45C30.5 45.8231 30.8428 46.1974 31.3204 46.7188L31.369 46.772C31.6211 47.0478 31.9131 47.3766 32.1342 47.8165ZM38.5 49.5C38.5 48.8032 38.3594 48.2645 38.1342 47.8165C37.9131 47.3766 37.6211 47.0478 37.369 46.772L37.3204 46.7188C36.8428 46.1974 36.5 45.8231 36.5 45C36.5 44.4468 36.6095 44.0562 36.761 43.7489C36.9162 43.4341 37.1261 43.183 37.3726 42.9077C37.4007 42.8762 37.4294 42.8444 37.4585 42.8122L37.4586 42.8121C37.9329 42.2868 38.5 41.6585 38.5 40.5C38.5 39.3039 37.8995 38.5582 37.4052 37.9443L37.3895 37.9247C36.8839 37.2967 36.5 36.8049 36.5 36C36.5 35.5011 36.606 35.1721 36.7488 34.9171C36.8975 34.6515 37.0961 34.4435 37.3497 34.1781L37.3616 34.1657C37.6105 33.9051 37.9067 33.5923 38.1305 33.1644C38.3594 32.727 38.5 32.1969 38.5 31.5C38.5 31.2239 38.2761 31 38 31C37.7239 31 37.5 31.2239 37.5 31.5C37.5 32.0531 37.3906 32.4214 37.2445 32.7008C37.0933 32.9898 36.8896 33.2121 36.6385 33.4749L36.5996 33.5155C36.3663 33.7593 36.0883 34.0497 35.8762 34.4286C35.644 34.8435 35.5 35.3427 35.5 36C35.5 37.1733 36.0938 37.9104 36.5833 38.5181L36.6105 38.5518C37.1133 39.1764 37.5 39.6776 37.5 40.5C37.5 41.2684 37.1682 41.6382 36.6903 42.1707L36.6274 42.2407C36.3739 42.524 36.0838 42.8608 35.864 43.3068C35.6405 43.7602 35.5 44.3032 35.5 45C35.5 46.2162 36.0774 46.8443 36.5623 47.372L36.631 47.4468C36.8789 47.7179 37.0869 47.9594 37.2408 48.2656C37.3906 48.5636 37.5 48.9468 37.5 49.5C37.5 49.7761 37.7239 50 38 50C38.2761 50 38.5 49.7761 38.5 49.5Z"/>
</svg>
