<svg id="logotype" xmlns="http://www.w3.org/2000/svg" viewBox="0 0 3133.28 928.61"><title>Монтажная область 12 копия</title><path d="M1270.28,513.93l79,295,126-34-78-295Zm-123,166a128,128,0,1,1,128-128A127.61,127.61,0,0,1,1147.28,679.93Zm0,132a260,260,0,1,0-260-260A259.48,259.48,0,0,0,1147.28,811.93Z"/><path d="M1543.28,551.93a260.22,260.22,0,0,0,444,184l-93-93c-23,23-55,37-91,37a128,128,0,0,1,0-256c36,0,68,14,91,38l93-94a260.22,260.22,0,0,0-444,184Z"/><path d="M2441.17,523l127-34-133-489-126,33Zm-189-82c62-35,139-15,174,47s15,139-46,175-140,14-175-47C2169.17,554,2190.17,476,2252.17,441Zm-66-114c-125,72-168,230-96,355,72,124,231,167,356,95,124-72,167-231,95-355C2469.17,297,2310.17,255,2186.17,327Z"/><path d="M2689.28,551.93a260.22,260.22,0,0,0,444,184l-93-93c-23,23-55,37-91,37a128,128,0,0,1,0-256c36,0,68,14,91,38l93-94a260.22,260.22,0,0,0-444,184Z"/><path d="M0,171.89V928.61H756.72V171.89ZM382.89,783.61h0c-129.38,0-234.26-104.89-234.26-234.27h0c0-129.38,104.88-234.26,234.26-234.26h0c129.39,0,234.27,104.88,234.27,234.26h0C617.16,678.72,512.28,783.61,382.89,783.61Z"/></svg>