<svg width="62" height="39" viewBox="0 0 62 39" xmlns="http://www.w3.org/2000/svg">
<path fill-rule="evenodd" clip-rule="evenodd" d="M61.5 0H0.5V39H61.5V0ZM1.5 38V1H60.5V38H1.5ZM57 31C57 32.3807 55.8807 33.5 54.5 33.5C53.1193 33.5 52 32.3807 52 31C52 29.6193 53.1193 28.5 54.5 28.5C55.8807 28.5 57 29.6193 57 31ZM58 31C58 32.933 56.433 34.5 54.5 34.5C52.567 34.5 51 32.933 51 31C51 29.067 52.567 27.5 54.5 27.5C56.433 27.5 58 29.067 58 31ZM43 4.5H5V33.5H43V4.5ZM4 3.5V34.5H44V3.5H4ZM47 4.5H57V9.5H47V4.5ZM46 10.5V3.5H58V10.5H46ZM47 13.5C46.4477 13.5 46 13.9477 46 14.5C46 15.0523 46.4477 15.5 47 15.5C47.5523 15.5 48 15.0523 48 14.5C48 13.9477 47.5523 13.5 47 13.5ZM51 14.5C51 13.9477 51.4477 13.5 52 13.5C52.5523 13.5 53 13.9477 53 14.5C53 15.0523 52.5523 15.5 52 15.5C51.4477 15.5 51 15.0523 51 14.5ZM57 13.5C56.4477 13.5 56 13.9477 56 14.5C56 15.0523 56.4477 15.5 57 15.5C57.5523 15.5 58 15.0523 58 14.5C58 13.9477 57.5523 13.5 57 13.5ZM46 18.5C46 17.9477 46.4477 17.5 47 17.5C47.5523 17.5 48 17.9477 48 18.5C48 19.0523 47.5523 19.5 47 19.5C46.4477 19.5 46 19.0523 46 18.5ZM52 17.5C51.4477 17.5 51 17.9477 51 18.5C51 19.0523 51.4477 19.5 52 19.5C52.5523 19.5 53 19.0523 53 18.5C53 17.9477 52.5523 17.5 52 17.5ZM56 18.5C56 17.9477 56.4477 17.5 57 17.5C57.5523 17.5 58 17.9477 58 18.5C58 19.0523 57.5523 19.5 57 19.5C56.4477 19.5 56 19.0523 56 18.5ZM47 21.5C46.4477 21.5 46 21.9477 46 22.5C46 23.0523 46.4477 23.5 47 23.5C47.5523 23.5 48 23.0523 48 22.5C48 21.9477 47.5523 21.5 47 21.5ZM51 22.5C51 21.9477 51.4477 21.5 52 21.5C52.5523 21.5 53 21.9477 53 22.5C53 23.0523 52.5523 23.5 52 23.5C51.4477 23.5 51 23.0523 51 22.5ZM57 21.5C56.4477 21.5 56 21.9477 56 22.5C56 23.0523 56.4477 23.5 57 23.5C57.5523 23.5 58 23.0523 58 22.5C58 21.9477 57.5523 21.5 57 21.5ZM12.6465 18.4394C12.4512 18.6346 12.4512 18.9512 12.6465 19.1465C12.8417 19.3417 13.1583 19.3417 13.3536 19.1465L23.6465 8.85357C23.8417 8.65831 23.8417 8.34172 23.6465 8.14646C23.4512 7.9512 23.1346 7.9512 22.9394 8.14646L12.6465 18.4394ZM22.6465 29.1465C22.4512 28.9512 22.4512 28.6346 22.6465 28.4394L32.9394 18.1465C33.1346 17.9512 33.4512 17.9512 33.6465 18.1465C33.8417 18.3417 33.8417 18.6583 33.6465 18.8536L23.3536 29.1465C23.1583 29.3417 22.8417 29.3417 22.6465 29.1465ZM17.6465 23.4394C17.4512 23.6346 17.4512 23.9512 17.6465 24.1465C17.8417 24.3417 18.1583 24.3417 18.3536 24.1465L28.6465 13.8536C28.8417 13.6583 28.8417 13.3417 28.6465 13.1465C28.4512 12.9512 28.1346 12.9512 27.9394 13.1465L17.6465 23.4394Z"/>
</svg>
