<svg width="62" height="92" viewBox="0 0 62 92" fill="none" xmlns="http://www.w3.org/2000/svg">
<path fill-rule="evenodd" clip-rule="evenodd" d="M38.062 0.00389046C38.2857 0.0318759 38.463 0.206315 38.4949 0.429458L38.4954 0.432676L38.4978 0.44833C38.5001 0.462803 38.5037 0.48523 38.5088 0.514962C38.5189 0.574444 38.535 0.66305 38.5579 0.775607C38.6039 1.00095 38.6773 1.32099 38.7864 1.69467C39.006 2.44679 39.3634 3.39383 39.916 4.22267C40.0496 4.42311 40.1803 4.60965 40.3057 4.78862L40.3058 4.7888C40.9794 5.75009 41.5 6.49312 41.5 8.00002C41.5 9.77602 40.578 11.1291 39.8535 11.8536C39.7105 11.9966 39.4954 12.0394 39.3086 11.962C39.1218 11.8846 38.9999 11.7023 39 11.5C39 10.1098 38.6613 9.4708 38.2346 8.93737C38.1202 8.79443 37.9841 8.64496 37.8359 8.48222C37.4328 8.03953 36.9403 7.49863 36.5528 6.72364C36.287 6.19221 36.2601 5.49939 36.318 4.8386C36.3776 4.15952 36.5357 3.4284 36.7149 2.76496C36.8949 2.0989 37.1 1.48665 37.2597 1.04181C37.3397 0.819005 37.4087 0.637275 37.4578 0.510696C37.4824 0.447386 37.5021 0.397816 37.5157 0.363741L37.5316 0.324452L37.5359 0.313922L37.5376 0.309686C37.6234 0.101154 37.8383 -0.0241045 38.062 0.00389046ZM37.6803 3.02576C37.7537 2.75429 37.8316 2.49149 37.9089 2.24605C38.1496 3.00731 38.5224 3.93514 39.0839 4.77737C39.2391 5.01007 39.3819 5.21557 39.5123 5.40307L39.5124 5.40332C40.1612 6.33657 40.5 6.82394 40.5 8.00002C40.5 8.85438 40.2319 9.59701 39.8859 10.1859C39.7256 9.36358 39.4086 8.80415 39.0154 8.31268C38.8349 8.08697 38.6593 7.89487 38.4889 7.70837L38.4889 7.70833C38.117 7.30137 37.7695 6.92106 37.4472 6.27641C37.3098 6.00162 37.2602 5.54132 37.3142 4.92595C37.3665 4.32886 37.5088 3.66076 37.6803 3.02576ZM46.4949 4.42946C46.463 4.20631 46.2857 4.03188 46.062 4.00389C45.8383 3.9759 45.6234 4.10115 45.5376 4.30969L45.5359 4.31392L45.5316 4.32445L45.5157 4.36374C45.5021 4.39782 45.4824 4.44739 45.4578 4.5107C45.4087 4.63728 45.3397 4.81901 45.2597 5.04181C45.1 5.48665 44.8949 6.0989 44.7149 6.76496C44.5357 7.4284 44.3776 8.15952 44.318 8.8386C44.2601 9.4994 44.287 10.1922 44.5528 10.7236C44.9403 11.4986 45.4328 12.0395 45.8359 12.4822C45.9841 12.645 46.1202 12.7944 46.2346 12.9374C46.6613 13.4708 47 14.1098 47 15.5C46.9999 15.7023 47.1218 15.8846 47.3086 15.962C47.4954 16.0394 47.7105 15.9966 47.8535 15.8536C48.578 15.1291 49.5 13.776 49.5 12C49.5 10.4931 48.9794 9.75009 48.3058 8.7888L48.3057 8.7886L48.3054 8.78821C48.1801 8.60937 48.0495 8.42296 47.916 8.22267C47.3634 7.39383 47.006 6.44679 46.7864 5.69467C46.6773 5.32099 46.6039 5.00095 46.5579 4.77561C46.535 4.66305 46.5189 4.57444 46.5088 4.51496C46.5037 4.48523 46.5001 4.4628 46.4978 4.44833L46.4954 4.43268L46.4949 4.42946ZM45.9089 6.24605C45.8316 6.49149 45.7537 6.7543 45.6803 7.02576C45.5088 7.66076 45.3665 8.32886 45.3142 8.92595C45.2602 9.54132 45.3098 10.0016 45.4472 10.2764C45.7695 10.9211 46.117 11.3014 46.4889 11.7083L46.4889 11.7084C46.6593 11.8949 46.8349 12.087 47.0154 12.3127C47.4086 12.8042 47.7256 13.3636 47.8859 14.1859C48.2319 13.597 48.5 12.8544 48.5 12C48.5 10.8239 48.1612 10.3366 47.5124 9.40332L47.5122 9.40301C47.3819 9.21552 47.239 9.01004 47.0839 8.77737C46.5224 7.93514 46.1496 7.00731 45.9089 6.24605ZM30.4 18L31.6 21H0.5V92H61.5V31.5V30.5V21H51.4L53 17H30.5H30H20.5C20.2239 17 20 17.2239 20 17.5C20 17.7761 20.2239 18 20.5 18H30.4ZM50.323 21H32.677L31.477 18H51.523L50.323 21ZM32 22H51H60.5V30.5H38H24H1.5V22H32ZM24 31.5H1.5V81.5H60.5V31.5H38V35.5H24V31.5ZM1.5 91V82.5H60.5V91H1.5ZM37 34.5V31.5H25V34.5H37ZM37.5 27.5C38.3284 27.5 39 26.8284 39 26C39 25.1716 38.3284 24.5 37.5 24.5C36.6716 24.5 36 25.1716 36 26C36 26.8284 36.6716 27.5 37.5 27.5ZM37.5 28.5C38.8807 28.5 40 27.3807 40 26C40 24.6193 38.8807 23.5 37.5 23.5C36.1193 23.5 35 24.6193 35 26C35 27.3807 36.1193 28.5 37.5 28.5ZM51 26C51 26.8284 50.3284 27.5 49.5 27.5C48.6716 27.5 48 26.8284 48 26C48 25.1716 48.6716 24.5 49.5 24.5C50.3284 24.5 51 25.1716 51 26ZM52 26C52 27.3807 50.8807 28.5 49.5 28.5C48.1193 28.5 47 27.3807 47 26C47 24.6193 48.1193 23.5 49.5 23.5C50.8807 23.5 52 24.6193 52 26ZM13.5 27.5C14.3284 27.5 15 26.8284 15 26C15 25.1716 14.3284 24.5 13.5 24.5C12.6716 24.5 12 25.1716 12 26C12 26.8284 12.6716 27.5 13.5 27.5ZM13.5 28.5C14.8807 28.5 16 27.3807 16 26C16 24.6193 14.8807 23.5 13.5 23.5C12.1193 23.5 11 24.6193 11 26C11 27.3807 12.1193 28.5 13.5 28.5ZM27 26C27 26.8284 26.3284 27.5 25.5 27.5C24.6716 27.5 24 26.8284 24 26C24 25.1716 24.6716 24.5 25.5 24.5C26.3284 24.5 27 25.1716 27 26ZM28 26C28 27.3807 26.8807 28.5 25.5 28.5C24.1193 28.5 23 27.3807 23 26C23 24.6193 24.1193 23.5 25.5 23.5C26.8807 23.5 28 24.6193 28 26ZM12 70.5V41.5H50V70.5H12ZM11 71.5V40.5H51V71.5H11Z"/>
</svg>
