<svg width="61" height="122" viewBox="0 0 61 122" xmlns="http://www.w3.org/2000/svg">
<path fill-rule="evenodd" clip-rule="evenodd" d="M1 5C1 3.07614 2.57614 1.5 4.5 1.5H56.5C58.4239 1.5 60 3.07614 60 5V40.5H1V5ZM1 41.5H60V112.5H1V41.5ZM1 113.5V120.5H60V113.5H1ZM4.5 0.5C2.02386 0.5 0 2.52386 0 5V121.5H61V5C61 2.52386 58.9761 0.5 56.5 0.5H4.5ZM9 8.5C9 8.22386 8.77614 8 8.5 8C8.22386 8 8 8.22386 8 8.5V32.5C8 32.7761 8.22386 33 8.5 33C8.77614 33 9 32.7761 9 32.5V8.5ZM8.5 48C8.77614 48 9 48.2239 9 48.5V72.5C9 72.7761 8.77614 73 8.5 73C8.22386 73 8 72.7761 8 72.5V48.5C8 48.2239 8.22386 48 8.5 48ZM44 49.5V57C44 57.2761 44.2239 57.5 44.5 57.5C44.7761 57.5 45 57.2761 45 57V49.5H51.5V71.5H29.5V49.5H36V57C36 57.2761 36.2239 57.5 36.5 57.5C36.7761 57.5 37 57.2761 37 57V49.5H44ZM44.5 48.5H52.5V72.5H28.5V48.5H36.5H44.5Z"/>
</svg>
