<svg width="62" height="71" viewBox="0 0 62 71" fill="none" xmlns="http://www.w3.org/2000/svg">
<path fill-rule="evenodd" clip-rule="evenodd" d="M0.5 0H61.5V9.5V10.5V71H0.5V0ZM60.5 9.5V1H1.5V9.5H60.5ZM1.5 10.5V70H60.5V10.5H1.5ZM31 23C21.335 23 13.5 30.835 13.5 40.5C13.5 50.165 21.335 58 31 58C38.7437 58 45.3127 52.9704 47.6183 45.9997L47.5566 46L47.4822 46L47.4524 46C46.2928 46 45.1988 45.6245 44.2995 44.9826C42.427 50.2179 37.2612 54 31.3071 54C23.6719 54 17.5 47.9871 17.5 40.5C17.5 33.0129 23.6719 27 31.3071 27C37.2757 27 42.452 30.8005 44.313 36.0555C45.2268 35.3927 46.3458 35 47.5476 35L47.585 35L47.6182 35C45.3125 28.0295 38.7436 23 31 23ZM43.4994 36.7744C41.9023 31.7222 36.9985 28 31.3071 28C24.2021 28 18.5 33.5871 18.5 40.5C18.5 41.5288 18.6263 42.5282 18.8647 43.4842C20.3502 43.3531 21.3687 42.4246 22.5949 41.3065L22.7887 41.1301C24.1753 39.8695 25.7984 38.5 28.5 38.5C31.7249 38.5 33.4731 40.0307 35.1955 41.5388C35.3227 41.6503 35.4499 41.7616 35.5775 41.8722C36.5083 42.6789 37.4654 43.4532 38.697 44.0319C39.8675 44.5819 41.307 44.9644 43.2257 44.9977C43.3196 44.7591 43.406 44.5171 43.4847 44.2719C42.5703 43.3022 42 41.997 42 40.5476C42 39.0978 42.5716 37.7682 43.4994 36.7744ZM42.785 45.9846C40.9385 45.9035 39.4871 45.508 38.2717 44.9369C36.9096 44.2969 35.8667 43.4462 34.9225 42.6279C34.7998 42.5215 34.6788 42.4158 34.559 42.3112C32.8273 40.7987 31.3402 39.5 28.5 39.5C26.2016 39.5 24.8247 40.6305 23.4613 41.87C23.3775 41.9462 23.2935 42.0232 23.209 42.1006C22.0834 43.1315 20.8811 44.2328 19.1511 44.4583C20.8394 49.4261 25.6245 53 31.3071 53C36.3148 53 40.7127 50.1184 42.785 45.9846ZM48.5 40.5C48.5 42.0512 48.2982 43.5553 47.9193 44.9875C47.7768 44.9986 47.617 45 47.4524 45C45.0556 45 43 43.0272 43 40.5476C43 38.0619 45.0619 36 47.5476 36C47.6945 36 47.8145 36.0007 47.9173 36.0047C48.2974 37.4392 48.5 38.9459 48.5 40.5ZM12.5 40.5C12.5 30.2827 20.7827 22 31 22C41.2173 22 49.5 30.2827 49.5 40.5C49.5 50.7173 41.2173 59 31 59C20.7827 59 12.5 50.7173 12.5 40.5ZM25 3.5H13V6.5H25V3.5ZM12 2.5V7.5H26V2.5H12ZM42 5C42 5.82843 41.3284 6.5 40.5 6.5C39.6716 6.5 39 5.82843 39 5C39 4.17157 39.6716 3.5 40.5 3.5C41.3284 3.5 42 4.17157 42 5ZM43 5C43 6.38071 41.8807 7.5 40.5 7.5C39.1193 7.5 38 6.38071 38 5C38 3.61929 39.1193 2.5 40.5 2.5C41.8807 2.5 43 3.61929 43 5ZM47.5 6.5C48.3284 6.5 49 5.82843 49 5C49 4.17157 48.3284 3.5 47.5 3.5C46.6716 3.5 46 4.17157 46 5C46 5.82843 46.6716 6.5 47.5 6.5ZM47.5 7.5C48.8807 7.5 50 6.38071 50 5C50 3.61929 48.8807 2.5 47.5 2.5C46.1193 2.5 45 3.61929 45 5C45 6.38071 46.1193 7.5 47.5 7.5Z"/>
</svg>
